# xmcd
#
# Track frame offsets: 
#        150
#        15235
#        33085
#        49435
#        76810
#        91210
#        107560
#        119485
#        133285
#        151360
#        166510
#        181285
#        197560
#        226735
#
# Disc length: 3244 seconds
#
# Revision: 0
# Processed by: cddbd v1.4PL0 Copyright (c) Steve Scherf et al.
# Submitted via: ExactAudioCopy v0.90b4
#
DISCID=9f0caa0e
DTITLE=David Johansen and the Harry Smiths - Shaker
DYEAR=2002
DGENRE=Blues
TTITLE0=Furry's Blues
TTITLE1=I'll Go With Her
TTITLE2=Deep Blue Sea
TTITLE3=My Morphine
TTITLE4=Ham Hound Crave
TTITLE5=Let The Mermaids Flirt With Me
TTITLE6=I Can't Be Satisfied
TTITLE7=In Love Again
TTITLE8=Death Letter
TTITLE9=My Grandpa Is Old Too
TTITLE10=Jailbird Love Song
TTITLE11=High Sheriff
TTITLE12=Kassie Jones
TTITLE13=The Last Kind Words
EXTD=
EXTT0=
EXTT1=
EXTT2=
EXTT3=
EXTT4=
EXTT5=
EXTT6=
EXTT7=
EXTT8=
EXTT9=
EXTT10=
EXTT11=
EXTT12=
EXTT13=
PLAYORDER=
